<svg version="1.1" id="Layer_1" xmlns="http://www.w3.org/2000/svg" x="0" y="0" viewBox="0 0 772.6 120.7" xml:space="preserve"><style>.st0{fill:#fff}</style><text transform="translate(147.347 118.233)" class="st0" font-size="72" font-family="Nixmat">KAZARMAPROM</text><path class="st0" d="M90.9 121.1c.2-1.5.2-2.4.4-3.2 2.1-9.4-.3-17.8-5.6-25.6-4.3-6.3-8.6-12.6-9.8-20.3-.3-2-.4-4.1-.7-7-11.9 9-13.3 21.3-13.3 34.6-2.9-2.2-4.5-5.8-8.3-5.6-.2.3-.4.4-.4.6 1.2 4.7.5 9.1-1.4 13.6-1 2.5.1 6 .5 9 .1 1 .8 2 1.5 3.7-1.9-.6-3.2-.9-4.3-1.5-12-5.9-18.7-15.7-20.6-28.7-2.3-15.9.5-30.6 10.6-43.6 3.9-4.9 6.8-10.3 7.7-16.7.1-.4.3-.8.8-2 2.9 8 3.7 15.3.9 22.8-2.4 6.4-1.6 12.5 2.5 18.3.1-.9.2-1.8.2-2.7-.3-9.6 2.4-18.4 7.7-26.3 7.1-10.6 10.8-22.2 11-34.9 0-.3 0-.6.1-.9 0-.2.2-.3.4-.7.4.2.9.4 1.1.7 6.2 8.3 11.8 17.1 13.6 27.4 1 5.6.5 11.4 1.1 17 .5 4.4 1.3 8.9 2.5 13.2.6 2 2.3 3.7 4 5.3-2.1-12-3-23.4 6.1-33.9 0 3-.2 5.3 0 7.5.7 7.2 3.5 13.5 8 19.1 12.3 15.4 10.6 46.7-11.6 58.5-1.4.9-2.8 1.5-4.7 2.3z"/><path class="st0" d="M122.6 86.8c.3-15.9-6-29.5-14.6-42.3-4-5.9-4.4-12.9-4.8-19.8-.1-1.9 0-3.9 0-5.8l-1.2-.6c-2.3 2.8-4.9 5.3-6.8 8.3s-3.1 6.5-4.9 9.9c.5-12-3.7-22.4-9.7-32.4 5.5 6.1 8.8 13.3 11.3 21.9 4.1-5.6 8-10.4 14-13.6.1 1.5.1 2.6.2 3.7.4 6.4.5 12.8 1.4 19.1.4 3 1.9 6.1 3.6 8.8 5.9 9.5 10.8 19.4 12.2 30.7.5 4 .1 8.1.1 12.2-.4-.2-.6-.1-.8-.1zm-81-63.7c-.2 8.7-2.7 16.6-9.7 21.9-16.4 12.4-21.4 42.6-7.5 60.4.2.3.4.6.1 1.3-1.1-1.3-2.4-2.4-3.4-3.8-12.2-16.3-9.4-44.4 6.3-57.3 7.3-6.1 12.2-13.2 14.2-22.5zM64.1.3c2.7 9.3-.3 22.8-5.6 26.9 1.8-8.6 3.7-17.8 5.6-26.9z"/></svg>